<?xml version="1.0" encoding="UTF-8"?>
<svg version="1.1" xmlns="http://www.w3.org/2000/svg" width="500" height="500">
<path d="M0 0 C165 0 330 0 500 0 C500 165 500 330 500 500 C335 500 170 500 0 500 C0 335 0 170 0 0 Z " fill="#0C0C0C" transform="translate(0,0)"/>
<path d="M0 0 C165 0 330 0 500 0 C500 165 500 330 500 500 C335 500 170 500 0 500 C0 335 0 170 0 0 Z M67 58 C66.50145508 58.43876465 66.00291016 58.8775293 65.48925781 59.32958984 C47.38293108 75.4711875 35.3649216 98.32497381 33.82971692 122.70410419 C33.54294956 130.30231869 33.58046534 137.90324381 33.59594727 145.50561523 C33.59023524 148.05179136 33.58326778 150.59796493 33.57514954 153.14413452 C33.55914419 159.30659834 33.55709838 165.46892386 33.56236244 171.63140207 C33.56642553 176.6461401 33.5649354 181.66084816 33.55961418 186.67558479 C33.55886576 187.39287795 33.55811734 188.1101711 33.55734624 188.84920042 C33.55581456 190.30697545 33.55427621 191.76475047 33.55273127 193.22252548 C33.53904627 206.85130232 33.54441595 220.48002154 33.55591648 234.10879702 C33.56584761 246.54118265 33.55290315 258.97341942 33.52898229 271.4057821 C33.50452447 284.21507671 33.49499959 297.02430219 33.50163502 309.83361965 C33.50511206 317.00762296 33.50299595 324.18151188 33.48538399 331.35549736 C33.46902121 338.10346708 33.47394687 344.85110891 33.49268913 351.59908676 C33.49635577 354.06400946 33.49332333 356.52895345 33.48280334 358.99385643 C33.37844168 385.48507152 38.42071853 409.23763875 56 430 C56.66773437 430.80179687 57.33546875 431.60359375 58.0234375 432.4296875 C75.96382233 453.21980854 98.92708665 464.39123044 126.08084548 466.79226828 C130.58702659 467.11293536 135.07624078 467.14470392 139.59220886 467.14044189 C140.59895592 467.14341302 141.60570297 467.14638414 142.64295751 467.1494453 C145.98488073 467.15805196 149.32676779 467.15963366 152.66870117 467.16113281 C155.07783076 467.16576661 157.48695962 467.17079202 159.89608765 467.17617798 C166.41902852 467.18924813 172.94196255 467.19577382 179.46491408 467.20018864 C183.54647369 467.20296292 187.62803097 467.20720227 191.709589 467.21169281 C203.0360089 467.22387403 214.36242696 467.23417667 225.68885326 467.2375679 C226.77348625 467.23789725 226.77348625 467.23789725 227.88003101 467.23823325 C228.60472671 467.23845153 229.32942241 467.23866981 230.07607859 467.2388947 C231.54429003 467.23933815 233.01250146 467.23978471 234.48071289 467.24023438 C235.20897726 467.2404558 235.93724162 467.24067723 236.6875746 467.24090537 C248.48073886 467.24485115 260.27384126 467.26230359 272.06698164 467.2855939 C284.20826281 467.30937606 296.34951302 467.32177281 308.49081784 467.32293582 C315.29429429 467.32384855 322.09768999 467.32949915 328.90114403 467.34775543 C335.30425818 467.36430531 341.70721975 467.36635811 348.11034775 467.35761642 C350.44991148 467.3568498 352.78948366 467.36113883 355.12902641 467.37107468 C384.53539016 467.48856063 411.74028227 461.33171068 434 441 C434.76699219 440.31421875 435.53398437 439.6284375 436.32421875 438.921875 C454.24169875 422.03629176 465.52063272 397.80317916 467.18629324 373.25437689 C467.25695498 370.52101568 467.27170666 367.793995 467.26069641 365.05975342 C467.26452196 364.02765063 467.26834751 362.99554783 467.27228898 361.9321692 C467.28252012 358.51039011 467.27864574 355.08878193 467.2746582 351.66699219 C467.27901019 349.19860175 467.28419496 346.73021266 467.29014587 344.26182556 C467.30211193 338.2742989 467.30469346 332.28683816 467.30234561 326.29930559 C467.30055582 321.42701258 467.3023262 316.55473311 467.30657005 311.68244171 C467.30746284 310.63856029 467.30746284 310.63856029 467.30837366 309.57359035 C467.30958553 308.15937946 467.31079966 306.74516857 467.31201603 305.33095768 C467.32287056 292.09424649 467.32073918 278.85756082 467.31463119 265.62084821 C467.30946569 253.54321671 467.3207115 241.46566595 467.33972941 229.38805041 C467.35915839 216.95292918 467.36735485 204.51784604 467.36360615 192.08270955 C467.36170153 185.11493474 467.36410892 178.14722858 467.37832069 171.17946625 C467.39155974 164.62285839 467.38890612 158.06638449 467.37590981 151.50976753 C467.3735556 149.11376706 467.37623686 146.71775508 467.38453293 144.32176781 C467.48966911 111.57697613 459.74246036 85.24281059 436.625 61.3125 C431.76522219 56.55326932 426.736232 52.63447659 421 49 C420.24589844 48.48953125 419.49179687 47.9790625 418.71484375 47.453125 C398.25059912 34.19748741 374.55793688 32.39354485 350.87231445 32.49829102 C348.40288995 32.4944992 345.93346758 32.4889921 343.46405029 32.48191833 C337.50082572 32.46949363 331.5377961 32.47544633 325.57459394 32.49059392 C318.60797145 32.50760525 311.6414001 32.50422503 304.67476323 32.50049984 C292.2338976 32.49464481 279.79313373 32.50870137 267.35229492 32.53344727 C255.32035512 32.55737661 243.28855113 32.56444243 231.2565918 32.55395508 C218.10371252 32.54251099 204.95089577 32.54065755 191.7980172 32.55505317 C190.39209537 32.55657877 188.98617354 32.55809913 187.58025169 32.55961418 C186.88878796 32.560372 186.19732422 32.56112981 185.48490703 32.56191059 C180.64509827 32.5666253 175.80531772 32.56482223 170.96550941 32.56054878 C164.43751651 32.55506912 157.9096824 32.56599857 151.38171387 32.58750343 C148.99700231 32.59303197 146.61227272 32.59357314 144.22756004 32.58855057 C115.2236093 32.53515735 89.14799713 38.12098728 67 58 Z " fill="#FEFEFE" transform="translate(0,0)"/>
<path d="M0 0 C0.66 0 1.32 0 2 0 C2.57342506 16.46171028 1.42376096 31.8845159 -2 48 C-2.17660156 48.84401367 -2.35320312 49.68802734 -2.53515625 50.55761719 C-7.59280235 73.90708334 -18.16847816 96.98266647 -34 115 C-34.68449219 115.81597656 -35.36898437 116.63195312 -36.07421875 117.47265625 C-44.10617348 126.80241336 -53.36472014 134.11859726 -63.625 140.8125 C-64.30498047 141.25650146 -64.98496094 141.70050293 -65.68554688 142.15795898 C-90.2979547 157.82334439 -119.80906169 164.79626208 -148.07910156 170.51586914 C-186.58071868 178.31390674 -224.71265333 189.9973768 -247.62524414 224.30371094 C-251.33301323 229.99154919 -254.52059326 235.67394164 -257 242 C-257.67095703 243.53914063 -257.67095703 243.53914063 -258.35546875 245.109375 C-264.67699253 259.99501969 -269.23797106 275.89870104 -271 292 C-270.53851563 291.00742187 -270.07703125 290.01484375 -269.6015625 288.9921875 C-263.62958034 276.44029686 -256.64379916 264.20843205 -246 255 C-245.21367187 254.30777344 -244.42734375 253.61554688 -243.6171875 252.90234375 C-231.18455162 242.33641559 -218.05209178 235.08793682 -203 229 C-201.29263672 228.30777344 -201.29263672 228.30777344 -199.55078125 227.6015625 C-183.7301783 221.60919902 -167.02133496 218.12124323 -150.48632812 214.74731445 C-128.96784 210.35331226 -107.19377133 204.85522392 -87.25 195.50390625 C-84.52114972 194.24115702 -81.830099 193.18827514 -79 192.1875 C-55.26963918 182.782658 -33.59821019 163.24894857 -20 142 C-18.69946675 139.97135335 -17.37326956 137.98164275 -16 136 C-15.67 136 -15.34 136 -15 136 C-13.963077 163.4976617 -20.12455198 193.92301789 -39 215 C-39.4439209 215.50660156 -39.8878418 216.01320313 -40.34521484 216.53515625 C-46.05461408 223.03433372 -51.64378588 229.33938489 -59 234 C-60.0415625 234.68320312 -61.083125 235.36640625 -62.15625 236.0703125 C-69.04279693 240.46776884 -76.09956381 244.12851604 -83.625 247.3125 C-84.36339111 247.62558105 -85.10178223 247.93866211 -85.86254883 248.26123047 C-96.59901727 252.64666399 -107.4933171 255.51137584 -118.91333008 257.46588135 C-121.00940453 257.82481292 -123.10343741 258.19411725 -125.19726562 258.56591797 C-128.21284623 259.10089796 -131.2289942 259.63248452 -134.24560547 260.16162109 C-141.6860274 261.47007517 -149.11908164 262.81880006 -156.55032349 264.17831421 C-158.9221067 264.61079656 -161.29485106 265.03765886 -163.66772461 265.46411133 C-202.04497093 272.4275419 -249.57141825 283.47751649 -275.22265625 315.80078125 C-275.80917969 316.52652344 -276.39570313 317.25226563 -277 318 C-277.66 318 -278.32 318 -279 318 C-280.57676055 305.74613563 -281.44091059 293.66798948 -281.4375 281.3125 C-281.4385675 280.47804352 -281.43963501 279.64358704 -281.44073486 278.78384399 C-281.38788568 249.84274136 -277.59444031 215.03829498 -259.21875 191.32421875 C-256.78755869 188.30112481 -256.78755869 188.30112481 -256.87890625 185.375 C-257.10449219 184.59125 -257.33007812 183.8075 -257.5625 183 C-257.789375 182.14664063 -258.01625 181.29328125 -258.25 180.4140625 C-258.4975 179.61742187 -258.745 178.82078125 -259 178 C-265.46443347 155.94487405 -263.88485867 130.17432423 -252.7890625 109.83203125 C-243.90618949 95.7707148 -232.93103 84.999545 -219 76 C-217.70255859 75.10667969 -217.70255859 75.10667969 -216.37890625 74.1953125 C-190.1165428 57.25940501 -155.36933853 53.48097365 -125.234375 48.78515625 C-58.02066589 38.82780166 -58.02066589 38.82780166 -2 3 C-1.34 2.01 -0.68 1.02 0 0 Z " fill="#FCFCFC" transform="translate(392,88)"/>
<path d="M0 0 C0.99 0.495 0.99 0.495 2 1 C-16.36886929 28.0195392 -38.13366055 42.82999679 -69 53 C-70.24233398 53.41499756 -70.24233398 53.41499756 -71.50976562 53.83837891 C-86.65667871 58.77696368 -102.10691978 61.60449175 -117.75 64.4375 C-142.33636476 68.89789686 -166.53671663 73.59703295 -189 85 C-190.32153202 85.64339879 -191.64314616 86.28662891 -192.96484375 86.9296875 C-205.18613926 93.02114593 -215.70771752 100.94973677 -225 111 C-226.4182851 106.49983989 -225.10070254 103.07787383 -223.625 98.75 C-223.35534424 97.95658203 -223.08568848 97.16316406 -222.80786133 96.34570312 C-218.26588184 83.5911246 -211.74572968 72.47188273 -202 63 C-201.16855469 62.15953125 -200.33710938 61.3190625 -199.48046875 60.453125 C-188.73451095 50.06903694 -176.0182952 43.83049553 -162 39 C-161.29713867 38.75540039 -160.59427734 38.51080078 -159.87011719 38.25878906 C-137.42900975 30.67320154 -113.33621417 28.04873927 -89.9375 25 C-76.0851148 23.18079672 -62.55154175 20.38267242 -49 17 C-48.22897949 16.80857422 -47.45795898 16.61714844 -46.66357422 16.41992188 C-31.21041765 12.47567377 -14.29295096 7.14647548 0 0 Z " fill="#0E0E0E" transform="translate(371,152)"/>
<path d="M0 0 C0.99 0 1.98 0 3 0 C4.16161779 2.86578759 3.9946154 4.01630163 3.00390625 7.015625 C2.29041016 8.61664063 2.29041016 8.61664063 1.5625 10.25 C1.08941406 11.32765625 0.61632812 12.4053125 0.12890625 13.515625 C-0.24363281 14.33546875 -0.61617188 15.1553125 -1 16 C-1.33 16 -1.66 16 -2 16 C-1.50130596 10.63108121 -0.97772468 5.30764827 0 0 Z " fill="#282828" transform="translate(122,367)"/>
<path d="M0 0 C0.33 0.66 0.66 1.32 1 2 C-0.20703125 3.51953125 -0.20703125 3.51953125 -2 5 C-4.26171875 5.07421875 -4.26171875 5.07421875 -6.6875 4.6875 C-7.49574219 4.56761719 -8.30398437 4.44773437 -9.13671875 4.32421875 C-9.75160156 4.21722656 -10.36648437 4.11023437 -11 4 C-4.14893617 -1.38297872 -4.14893617 -1.38297872 0 0 Z " fill="#1A191B" transform="translate(96,42)"/>
<path d="M0 0 C1 3 1 3 2 6 C-4.625 9 -4.625 9 -8 9 C-5.36 6.03 -2.72 3.06 0 0 Z " fill="#1D1C1C" transform="translate(60,65)"/>
<path d="M0 0 C1.8046875 0.921875 1.8046875 0.921875 3.8046875 2.921875 C-1.16447886 2.40782331 -5.48557601 1.68802618 -10.1953125 -0.078125 C-6.52425333 -2.98438017 -3.94039446 -1.57615778 0 0 Z " fill="#2E2D2D" transform="translate(111.1953125,462.078125)"/>
<path d="M0 0 C0.99 1.32 1.98 2.64 3 4 C2.01 4 1.02 4 0 4 C-1.68236471 4.62599617 -3.3523962 5.28752268 -5 6 C-5.66 5.34 -6.32 4.68 -7 4 C-4.69 2.68 -2.38 1.36 0 0 Z " fill="#151515" transform="translate(330,227)"/>
<path d="M0 0 C2.3125 0.8125 2.3125 0.8125 4 2 C1.61426621 3.89213369 -0.07175348 5.02391783 -3 6 C-3 5.34 -3 4.68 -3 4 C-3.66 3.67 -4.32 3.34 -5 3 C-2.75 1.375 -2.75 1.375 0 0 Z " fill="#131313" transform="translate(169,322)"/>
<path d="M0 0 C2.18975773 3.28463659 2.99806563 6.20696275 4 10 C3.01 10 2.02 10 1 10 C0.63720544 8.71073008 0.28503302 7.41846728 -0.0625 6.125 C-0.35833984 5.04605469 -0.35833984 5.04605469 -0.66015625 3.9453125 C-1 2 -1 2 0 0 Z " fill="#1F1D1D" transform="translate(458,93)"/>
<path d="M0 0 C3.465 1.98 3.465 1.98 7 4 C6.01 5.32 5.02 6.64 4 8 C2 6.25 2 6.25 0 4 C0 2.68 0 1.36 0 0 Z " fill="#131111" transform="translate(417,47)"/>
<path d="M0 0 C0.66 0.33 1.32 0.66 2 1 C0.02 3.97 0.02 3.97 -2 7 C-2.99 6.34 -3.98 5.68 -5 5 C-5 4.01 -5 3.02 -5 2 C-2.625 0.9375 -2.625 0.9375 0 0 Z " fill="#262626" transform="translate(371,152)"/>
<path d="M0 0 C2.64 0.99 5.28 1.98 8 3 C8 3.66 8 4.32 8 5 C4.44219804 4.39009109 1.3171411 3.4216319 -2 2 C-1.34 1.34 -0.68 0.68 0 0 Z " fill="#222020" transform="translate(93,456)"/>
<path d="M0 0 C1.98 0.99 3.96 1.98 6 3 C5.67 3.99 5.34 4.98 5 6 C1.535 4.02 1.535 4.02 -2 2 C-1.34 1.34 -0.68 0.68 0 0 Z " fill="#1A1819" transform="translate(79,448)"/>
<path d="M0 0 C0.66 0.33 1.32 0.66 2 1 C1.2575 1.680625 1.2575 1.680625 0.5 2.375 C-1.22609337 3.87635519 -1.22609337 3.87635519 -1 6 C-2.65 5.67 -4.3 5.34 -6 5 C-2.25 1.125 -2.25 1.125 0 0 Z " fill="#1C1B1B" transform="translate(82,47)"/>
<path d="M0 0 C1.76462683 3.08809695 2 4.23312136 2 8 C1.01 8 0.02 8 -1 8 C-0.67 5.36 -0.34 2.72 0 0 Z " fill="#252425" transform="translate(36,108)"/>
<path d="M0 0 C0 0.99 0 1.98 0 3 C-2.875 3.625 -2.875 3.625 -6 4 C-6.66 3.34 -7.32 2.68 -8 2 C-2.25 0 -2.25 0 0 0 Z " fill="#242323" transform="translate(106,37)"/>
</svg>
